<svg id="visual" viewBox="0 0 960 100" width="960" height="100" xmlns="http://www.w3.org/2000/svg" xmlns:xlink="http://www.w3.org/1999/xlink" version="1.1"><path d="M0 24L22.8 27.5C45.7 31 91.3 38 137 38.5C182.7 39 228.3 33 274 30C319.7 27 365.3 27 411.2 28C457 29 503 31 548.8 32.8C594.7 34.7 640.3 36.3 686 38C731.7 39.7 777.3 41.3 823 38.2C868.7 35 914.3 27 937.2 23L960 19L960 101L937.2 101C914.3 101 868.7 101 823 101C777.3 101 731.7 101 686 101C640.3 101 594.7 101 548.8 101C503 101 457 101 411.2 101C365.3 101 319.7 101 274 101C228.3 101 182.7 101 137 101C91.3 101 45.7 101 22.8 101L0 101Z" fill="#001220"></path><path d="M0 50L22.8 50C45.7 50 91.3 50 137 50.5C182.7 51 228.3 52 274 52.8C319.7 53.7 365.3 54.3 411.2 52.2C457 50 503 45 548.8 44C594.7 43 640.3 46 686 49.7C731.7 53.3 777.3 57.7 823 56.3C868.7 55 914.3 48 937.2 44.5L960 41L960 101L937.2 101C914.3 101 868.7 101 823 101C777.3 101 731.7 101 686 101C640.3 101 594.7 101 548.8 101C503 101 457 101 411.2 101C365.3 101 319.7 101 274 101C228.3 101 182.7 101 137 101C91.3 101 45.7 101 22.8 101L0 101Z" fill="#122738"></path><path d="M0 70L22.8 69.3C45.7 68.7 91.3 67.3 137 65.2C182.7 63 228.3 60 274 61.3C319.7 62.7 365.3 68.3 411.2 70C457 71.7 503 69.3 548.8 67C594.7 64.7 640.3 62.3 686 62.3C731.7 62.3 777.3 64.7 823 64.2C868.7 63.7 914.3 60.3 937.2 58.7L960 57L960 101L937.2 101C914.3 101 868.7 101 823 101C777.3 101 731.7 101 686 101C640.3 101 594.7 101 548.8 101C503 101 457 101 411.2 101C365.3 101 319.7 101 274 101C228.3 101 182.7 101 137 101C91.3 101 45.7 101 22.8 101L0 101Z" fill="#243d52"></path><path d="M0 73L22.8 73.8C45.7 74.7 91.3 76.3 137 78C182.7 79.7 228.3 81.3 274 80.3C319.7 79.3 365.3 75.7 411.2 73.7C457 71.7 503 71.3 548.8 71.2C594.7 71 640.3 71 686 72.2C731.7 73.3 777.3 75.7 823 76.7C868.7 77.7 914.3 77.3 937.2 77.2L960 77L960 101L937.2 101C914.3 101 868.7 101 823 101C777.3 101 731.7 101 686 101C640.3 101 594.7 101 548.8 101C503 101 457 101 411.2 101C365.3 101 319.7 101 274 101C228.3 101 182.7 101 137 101C91.3 101 45.7 101 22.8 101L0 101Z" fill="#35556e"></path></svg>
