<svg id="visual" viewBox="0 0 960 100" width="960" height="100" xmlns="http://www.w3.org/2000/svg" xmlns:xlink="http://www.w3.org/1999/xlink" version="1.1"><path d="M0 63L22.8 64.8C45.7 66.7 91.3 70.3 137 70.7C182.7 71 228.3 68 274 64.5C319.7 61 365.3 57 411.2 57.3C457 57.7 503 62.3 548.8 62.2C594.7 62 640.3 57 686 55.3C731.7 53.7 777.3 55.3 823 55.3C868.7 55.3 914.3 53.7 937.2 52.8L960 52L960 0L937.2 0C914.3 0 868.7 0 823 0C777.3 0 731.7 0 686 0C640.3 0 594.7 0 548.8 0C503 0 457 0 411.2 0C365.3 0 319.7 0 274 0C228.3 0 182.7 0 137 0C91.3 0 45.7 0 22.8 0L0 0Z" fill="#ffffff"></path><path d="M0 38L22.8 39.2C45.7 40.3 91.3 42.7 137 42.7C182.7 42.7 228.3 40.3 274 40.3C319.7 40.3 365.3 42.7 411.2 45.3C457 48 503 51 548.8 54C594.7 57 640.3 60 686 60.7C731.7 61.3 777.3 59.7 823 58.7C868.7 57.7 914.3 57.3 937.2 57.2L960 57L960 0L937.2 0C914.3 0 868.7 0 823 0C777.3 0 731.7 0 686 0C640.3 0 594.7 0 548.8 0C503 0 457 0 411.2 0C365.3 0 319.7 0 274 0C228.3 0 182.7 0 137 0C91.3 0 45.7 0 22.8 0L0 0Z" fill="#bac3cc"></path><path d="M0 36L22.8 36C45.7 36 91.3 36 137 37.7C182.7 39.3 228.3 42.7 274 41C319.7 39.3 365.3 32.7 411.2 29.3C457 26 503 26 548.8 27.5C594.7 29 640.3 32 686 33.3C731.7 34.7 777.3 34.3 823 32.2C868.7 30 914.3 26 937.2 24L960 22L960 0L937.2 0C914.3 0 868.7 0 823 0C777.3 0 731.7 0 686 0C640.3 0 594.7 0 548.8 0C503 0 457 0 411.2 0C365.3 0 319.7 0 274 0C228.3 0 182.7 0 137 0C91.3 0 45.7 0 22.8 0L0 0Z" fill="#778a9c"></path><path d="M0 11L22.8 13.7C45.7 16.3 91.3 21.7 137 23.7C182.7 25.7 228.3 24.3 274 21.8C319.7 19.3 365.3 15.7 411.2 13.7C457 11.7 503 11.3 548.8 13.2C594.7 15 640.3 19 686 21.3C731.7 23.7 777.3 24.3 823 24.3C868.7 24.3 914.3 23.7 937.2 23.3L960 23L960 0L937.2 0C914.3 0 868.7 0 823 0C777.3 0 731.7 0 686 0C640.3 0 594.7 0 548.8 0C503 0 457 0 411.2 0C365.3 0 319.7 0 274 0C228.3 0 182.7 0 137 0C91.3 0 45.7 0 22.8 0L0 0Z" fill="#35556e"></path></svg>