<svg id="visual" viewBox="0 0 960 300" width="960" height="300" xmlns="http://www.w3.org/2000/svg" xmlns:xlink="http://www.w3.org/1999/xlink" version="1.1"><path d="M0 89L22.8 85C45.7 81 91.3 73 137 70.5C182.7 68 228.3 71 274 73C319.7 75 365.3 76 411.2 72.3C457 68.7 503 60.3 548.8 62.8C594.7 65.3 640.3 78.7 686 81C731.7 83.3 777.3 74.7 823 70.5C868.7 66.3 914.3 66.7 937.2 66.8L960 67L960 0L937.2 0C914.3 0 868.7 0 823 0C777.3 0 731.7 0 686 0C640.3 0 594.7 0 548.8 0C503 0 457 0 411.2 0C365.3 0 319.7 0 274 0C228.3 0 182.7 0 137 0C91.3 0 45.7 0 22.8 0L0 0Z" fill="#ffffff"></path><path d="M0 53L22.8 52C45.7 51 91.3 49 137 49.2C182.7 49.3 228.3 51.7 274 53.5C319.7 55.3 365.3 56.7 411.2 57.2C457 57.7 503 57.3 548.8 56.2C594.7 55 640.3 53 686 52.7C731.7 52.3 777.3 53.7 823 54.2C868.7 54.7 914.3 54.3 937.2 54.2L960 54L960 0L937.2 0C914.3 0 868.7 0 823 0C777.3 0 731.7 0 686 0C640.3 0 594.7 0 548.8 0C503 0 457 0 411.2 0C365.3 0 319.7 0 274 0C228.3 0 182.7 0 137 0C91.3 0 45.7 0 22.8 0L0 0Z" fill="#98a6b4"></path><path d="M0 17L22.8 18C45.7 19 91.3 21 137 25.5C182.7 30 228.3 37 274 37.8C319.7 38.7 365.3 33.3 411.2 29.2C457 25 503 22 548.8 24.5C594.7 27 640.3 35 686 35C731.7 35 777.3 27 823 27.2C868.7 27.3 914.3 35.7 937.2 39.8L960 44L960 0L937.2 0C914.3 0 868.7 0 823 0C777.3 0 731.7 0 686 0C640.3 0 594.7 0 548.8 0C503 0 457 0 411.2 0C365.3 0 319.7 0 274 0C228.3 0 182.7 0 137 0C91.3 0 45.7 0 22.8 0L0 0Z" fill="#35556e"></path></svg>