<svg id="visual" viewBox="0 0 960 100" width="960" height="100" xmlns="http://www.w3.org/2000/svg" xmlns:xlink="http://www.w3.org/1999/xlink" version="1.1"><path d="M0 78L22.8 77C45.7 76 91.3 74 137 71.5C182.7 69 228.3 66 274 65C319.7 64 365.3 65 411.2 62.7C457 60.3 503 54.7 548.8 55.8C594.7 57 640.3 65 686 70.5C731.7 76 777.3 79 823 76.5C868.7 74 914.3 66 937.2 62L960 58L960 0L937.2 0C914.3 0 868.7 0 823 0C777.3 0 731.7 0 686 0C640.3 0 594.7 0 548.8 0C503 0 457 0 411.2 0C365.3 0 319.7 0 274 0C228.3 0 182.7 0 137 0C91.3 0 45.7 0 22.8 0L0 0Z" fill="#fcfcfc"></path><path d="M0 60L22.8 56.5C45.7 53 91.3 46 137 43.5C182.7 41 228.3 43 274 45.3C319.7 47.7 365.3 50.3 411.2 49.5C457 48.7 503 44.3 548.8 44.7C594.7 45 640.3 50 686 53.2C731.7 56.3 777.3 57.7 823 59.7C868.7 61.7 914.3 64.3 937.2 65.7L960 67L960 0L937.2 0C914.3 0 868.7 0 823 0C777.3 0 731.7 0 686 0C640.3 0 594.7 0 548.8 0C503 0 457 0 411.2 0C365.3 0 319.7 0 274 0C228.3 0 182.7 0 137 0C91.3 0 45.7 0 22.8 0L0 0Z" fill="#b7b7b7"></path><path d="M0 32L22.8 35C45.7 38 91.3 44 137 44.8C182.7 45.7 228.3 41.3 274 41.8C319.7 42.3 365.3 47.7 411.2 50.2C457 52.7 503 52.3 548.8 49.2C594.7 46 640.3 40 686 37.8C731.7 35.7 777.3 37.3 823 40.2C868.7 43 914.3 47 937.2 49L960 51L960 0L937.2 0C914.3 0 868.7 0 823 0C777.3 0 731.7 0 686 0C640.3 0 594.7 0 548.8 0C503 0 457 0 411.2 0C365.3 0 319.7 0 274 0C228.3 0 182.7 0 137 0C91.3 0 45.7 0 22.8 0L0 0Z" fill="#767676"></path><path d="M0 25L22.8 25.7C45.7 26.3 91.3 27.7 137 29.8C182.7 32 228.3 35 274 35.3C319.7 35.7 365.3 33.3 411.2 31.2C457 29 503 27 548.8 27C594.7 27 640.3 29 686 29.7C731.7 30.3 777.3 29.7 823 30.5C868.7 31.3 914.3 33.7 937.2 34.8L960 36L960 0L937.2 0C914.3 0 868.7 0 823 0C777.3 0 731.7 0 686 0C640.3 0 594.7 0 548.8 0C503 0 457 0 411.2 0C365.3 0 319.7 0 274 0C228.3 0 182.7 0 137 0C91.3 0 45.7 0 22.8 0L0 0Z" fill="#3b3b3b"></path><path d="M0 21L22.8 18.8C45.7 16.7 91.3 12.3 137 10.2C182.7 8 228.3 8 274 10.3C319.7 12.7 365.3 17.3 411.2 17.8C457 18.3 503 14.7 548.8 14C594.7 13.3 640.3 15.7 686 16C731.7 16.3 777.3 14.7 823 14.7C868.7 14.7 914.3 16.3 937.2 17.2L960 18L960 0L937.2 0C914.3 0 868.7 0 823 0C777.3 0 731.7 0 686 0C640.3 0 594.7 0 548.8 0C503 0 457 0 411.2 0C365.3 0 319.7 0 274 0C228.3 0 182.7 0 137 0C91.3 0 45.7 0 22.8 0L0 0Z" fill="#000000"></path></svg>