<svg id="visual" viewBox="0 0 960 200" width="960" height="200" xmlns="http://www.w3.org/2000/svg" xmlns:xlink="http://www.w3.org/1999/xlink" version="1.1"><path d="M0 96L22.8 94C45.7 92 91.3 88 137 83.7C182.7 79.3 228.3 74.7 274 68C319.7 61.3 365.3 52.7 411.2 52.7C457 52.7 503 61.3 548.8 64C594.7 66.7 640.3 63.3 686 67C731.7 70.7 777.3 81.3 823 83.7C868.7 86 914.3 80 937.2 77L960 74L960 201L937.2 201C914.3 201 868.7 201 823 201C777.3 201 731.7 201 686 201C640.3 201 594.7 201 548.8 201C503 201 457 201 411.2 201C365.3 201 319.7 201 274 201C228.3 201 182.7 201 137 201C91.3 201 45.7 201 22.8 201L0 201Z" fill="#fcfcfc"></path><path d="M0 86L22.8 90.3C45.7 94.7 91.3 103.3 137 103.3C182.7 103.3 228.3 94.7 274 89.7C319.7 84.7 365.3 83.3 411.2 85.3C457 87.3 503 92.7 548.8 93.5C594.7 94.3 640.3 90.7 686 84.7C731.7 78.7 777.3 70.3 823 71C868.7 71.7 914.3 81.3 937.2 86.2L960 91L960 201L937.2 201C914.3 201 868.7 201 823 201C777.3 201 731.7 201 686 201C640.3 201 594.7 201 548.8 201C503 201 457 201 411.2 201C365.3 201 319.7 201 274 201C228.3 201 182.7 201 137 201C91.3 201 45.7 201 22.8 201L0 201Z" fill="#b7b7b7"></path><path d="M0 132L22.8 126.5C45.7 121 91.3 110 137 103.2C182.7 96.3 228.3 93.7 274 99.3C319.7 105 365.3 119 411.2 124.3C457 129.7 503 126.3 548.8 121.8C594.7 117.3 640.3 111.7 686 108.8C731.7 106 777.3 106 823 110C868.7 114 914.3 122 937.2 126L960 130L960 201L937.2 201C914.3 201 868.7 201 823 201C777.3 201 731.7 201 686 201C640.3 201 594.7 201 548.8 201C503 201 457 201 411.2 201C365.3 201 319.7 201 274 201C228.3 201 182.7 201 137 201C91.3 201 45.7 201 22.8 201L0 201Z" fill="#767676"></path><path d="M0 120L22.8 126.8C45.7 133.7 91.3 147.3 137 149.7C182.7 152 228.3 143 274 141.8C319.7 140.7 365.3 147.3 411.2 146.5C457 145.7 503 137.3 548.8 134.5C594.7 131.7 640.3 134.3 686 136.2C731.7 138 777.3 139 823 137.5C868.7 136 914.3 132 937.2 130L960 128L960 201L937.2 201C914.3 201 868.7 201 823 201C777.3 201 731.7 201 686 201C640.3 201 594.7 201 548.8 201C503 201 457 201 411.2 201C365.3 201 319.7 201 274 201C228.3 201 182.7 201 137 201C91.3 201 45.7 201 22.8 201L0 201Z" fill="#3b3b3b"></path><path d="M0 162L22.8 164.5C45.7 167 91.3 172 137 170.7C182.7 169.3 228.3 161.7 274 162C319.7 162.3 365.3 170.7 411.2 171.5C457 172.3 503 165.7 548.8 161.7C594.7 157.7 640.3 156.3 686 158.5C731.7 160.7 777.3 166.3 823 167.7C868.7 169 914.3 166 937.2 164.5L960 163L960 201L937.2 201C914.3 201 868.7 201 823 201C777.3 201 731.7 201 686 201C640.3 201 594.7 201 548.8 201C503 201 457 201 411.2 201C365.3 201 319.7 201 274 201C228.3 201 182.7 201 137 201C91.3 201 45.7 201 22.8 201L0 201Z" fill="#000000"></path></svg>