<svg id="visual" viewBox="0 0 960 100" width="960" height="100" xmlns="http://www.w3.org/2000/svg" xmlns:xlink="http://www.w3.org/1999/xlink" version="1.1"><path d="M0 58L22.8 61.3C45.7 64.7 91.3 71.3 137 74.8C182.7 78.3 228.3 78.7 274 74.5C319.7 70.3 365.3 61.7 411.2 57.2C457 52.7 503 52.3 548.8 51.8C594.7 51.3 640.3 50.7 686 49.3C731.7 48 777.3 46 823 45.7C868.7 45.3 914.3 46.7 937.2 47.3L960 48L960 0L937.2 0C914.3 0 868.7 0 823 0C777.3 0 731.7 0 686 0C640.3 0 594.7 0 548.8 0C503 0 457 0 411.2 0C365.3 0 319.7 0 274 0C228.3 0 182.7 0 137 0C91.3 0 45.7 0 22.8 0L0 0Z" fill="#e6e6e6"></path><path d="M0 55L22.8 53.2C45.7 51.3 91.3 47.7 137 43.5C182.7 39.3 228.3 34.7 274 32.5C319.7 30.3 365.3 30.7 411.2 31.7C457 32.7 503 34.3 548.8 37.3C594.7 40.3 640.3 44.7 686 46.8C731.7 49 777.3 49 823 48.8C868.7 48.7 914.3 48.3 937.2 48.2L960 48L960 0L937.2 0C914.3 0 868.7 0 823 0C777.3 0 731.7 0 686 0C640.3 0 594.7 0 548.8 0C503 0 457 0 411.2 0C365.3 0 319.7 0 274 0C228.3 0 182.7 0 137 0C91.3 0 45.7 0 22.8 0L0 0Z" fill="#aeaeae"></path><path d="M0 25L22.8 24.8C45.7 24.7 91.3 24.3 137 23.8C182.7 23.3 228.3 22.7 274 23.5C319.7 24.3 365.3 26.7 411.2 27C457 27.3 503 25.7 548.8 24.3C594.7 23 640.3 22 686 23C731.7 24 777.3 27 823 28.8C868.7 30.7 914.3 31.3 937.2 31.7L960 32L960 0L937.2 0C914.3 0 868.7 0 823 0C777.3 0 731.7 0 686 0C640.3 0 594.7 0 548.8 0C503 0 457 0 411.2 0C365.3 0 319.7 0 274 0C228.3 0 182.7 0 137 0C91.3 0 45.7 0 22.8 0L0 0Z" fill="#7a7a7a"></path></svg>