<svg id="visual" viewBox="0 0 960 100" width="960" height="100" xmlns="http://www.w3.org/2000/svg" xmlns:xlink="http://www.w3.org/1999/xlink" version="1.1"><path d="M0 17L22.8 20C45.7 23 91.3 29 137 33.7C182.7 38.3 228.3 41.7 274 41.3C319.7 41 365.3 37 411.2 34.8C457 32.7 503 32.3 548.8 32.8C594.7 33.3 640.3 34.7 686 33.5C731.7 32.3 777.3 28.7 823 29C868.7 29.3 914.3 33.7 937.2 35.8L960 38L960 101L937.2 101C914.3 101 868.7 101 823 101C777.3 101 731.7 101 686 101C640.3 101 594.7 101 548.8 101C503 101 457 101 411.2 101C365.3 101 319.7 101 274 101C228.3 101 182.7 101 137 101C91.3 101 45.7 101 22.8 101L0 101Z" fill="#fcfcfc"></path><path d="M0 49L22.8 47.3C45.7 45.7 91.3 42.3 137 41.7C182.7 41 228.3 43 274 43.7C319.7 44.3 365.3 43.7 411.2 41.3C457 39 503 35 548.8 35.3C594.7 35.7 640.3 40.3 686 44.2C731.7 48 777.3 51 823 49.5C868.7 48 914.3 42 937.2 39L960 36L960 101L937.2 101C914.3 101 868.7 101 823 101C777.3 101 731.7 101 686 101C640.3 101 594.7 101 548.8 101C503 101 457 101 411.2 101C365.3 101 319.7 101 274 101C228.3 101 182.7 101 137 101C91.3 101 45.7 101 22.8 101L0 101Z" fill="#b7b7b7"></path><path d="M0 67L22.8 63.3C45.7 59.7 91.3 52.3 137 50.3C182.7 48.3 228.3 51.7 274 53.3C319.7 55 365.3 55 411.2 56.5C457 58 503 61 548.8 61.7C594.7 62.3 640.3 60.7 686 59.3C731.7 58 777.3 57 823 58.3C868.7 59.7 914.3 63.3 937.2 65.2L960 67L960 101L937.2 101C914.3 101 868.7 101 823 101C777.3 101 731.7 101 686 101C640.3 101 594.7 101 548.8 101C503 101 457 101 411.2 101C365.3 101 319.7 101 274 101C228.3 101 182.7 101 137 101C91.3 101 45.7 101 22.8 101L0 101Z" fill="#767676"></path><path d="M0 62L22.8 63.2C45.7 64.3 91.3 66.7 137 67.2C182.7 67.7 228.3 66.3 274 65.2C319.7 64 365.3 63 411.2 63.7C457 64.3 503 66.7 548.8 69.5C594.7 72.3 640.3 75.7 686 76.5C731.7 77.3 777.3 75.7 823 73.3C868.7 71 914.3 68 937.2 66.5L960 65L960 101L937.2 101C914.3 101 868.7 101 823 101C777.3 101 731.7 101 686 101C640.3 101 594.7 101 548.8 101C503 101 457 101 411.2 101C365.3 101 319.7 101 274 101C228.3 101 182.7 101 137 101C91.3 101 45.7 101 22.8 101L0 101Z" fill="#3b3b3b"></path><path d="M0 83L22.8 83C45.7 83 91.3 83 137 81.5C182.7 80 228.3 77 274 78C319.7 79 365.3 84 411.2 84.7C457 85.3 503 81.7 548.8 80.7C594.7 79.7 640.3 81.3 686 83.3C731.7 85.3 777.3 87.7 823 87C868.7 86.3 914.3 82.7 937.2 80.8L960 79L960 101L937.2 101C914.3 101 868.7 101 823 101C777.3 101 731.7 101 686 101C640.3 101 594.7 101 548.8 101C503 101 457 101 411.2 101C365.3 101 319.7 101 274 101C228.3 101 182.7 101 137 101C91.3 101 45.7 101 22.8 101L0 101Z" fill="#000000"></path></svg>