<svg id="visual" viewBox="0 0 960 200" width="960" height="200" xmlns="http://www.w3.org/2000/svg" xmlns:xlink="http://www.w3.org/1999/xlink" version="1.1"><path d="M0 36L22.8 45.5C45.7 55 91.3 74 137 79C182.7 84 228.3 75 274 69.2C319.7 63.3 365.3 60.7 411.2 58.7C457 56.7 503 55.3 548.8 59.5C594.7 63.7 640.3 73.3 686 73.3C731.7 73.3 777.3 63.7 823 64C868.7 64.3 914.3 74.7 937.2 79.8L960 85L960 201L937.2 201C914.3 201 868.7 201 823 201C777.3 201 731.7 201 686 201C640.3 201 594.7 201 548.8 201C503 201 457 201 411.2 201C365.3 201 319.7 201 274 201C228.3 201 182.7 201 137 201C91.3 201 45.7 201 22.8 201L0 201Z" fill="#eef8ff"></path><path d="M0 120L22.8 113.5C45.7 107 91.3 94 137 90C182.7 86 228.3 91 274 94.7C319.7 98.3 365.3 100.7 411.2 96.5C457 92.3 503 81.7 548.8 82.7C594.7 83.7 640.3 96.3 686 97.7C731.7 99 777.3 89 823 85.2C868.7 81.3 914.3 83.7 937.2 84.8L960 86L960 201L937.2 201C914.3 201 868.7 201 823 201C777.3 201 731.7 201 686 201C640.3 201 594.7 201 548.8 201C503 201 457 201 411.2 201C365.3 201 319.7 201 274 201C228.3 201 182.7 201 137 201C91.3 201 45.7 201 22.8 201L0 201Z" fill="#acb8c1"></path><path d="M0 134L22.8 132.8C45.7 131.7 91.3 129.3 137 128.2C182.7 127 228.3 127 274 123.7C319.7 120.3 365.3 113.7 411.2 115.5C457 117.3 503 127.7 548.8 126C594.7 124.3 640.3 110.7 686 110.7C731.7 110.7 777.3 124.3 823 124.5C868.7 124.7 914.3 111.3 937.2 104.7L960 98L960 201L937.2 201C914.3 201 868.7 201 823 201C777.3 201 731.7 201 686 201C640.3 201 594.7 201 548.8 201C503 201 457 201 411.2 201C365.3 201 319.7 201 274 201C228.3 201 182.7 201 137 201C91.3 201 45.7 201 22.8 201L0 201Z" fill="#6e7b87"></path><path d="M0 147L22.8 144.7C45.7 142.3 91.3 137.7 137 137.3C182.7 137 228.3 141 274 139.7C319.7 138.3 365.3 131.7 411.2 129.5C457 127.3 503 129.7 548.8 133.5C594.7 137.3 640.3 142.7 686 147C731.7 151.3 777.3 154.7 823 151.8C868.7 149 914.3 140 937.2 135.5L960 131L960 201L937.2 201C914.3 201 868.7 201 823 201C777.3 201 731.7 201 686 201C640.3 201 594.7 201 548.8 201C503 201 457 201 411.2 201C365.3 201 319.7 201 274 201C228.3 201 182.7 201 137 201C91.3 201 45.7 201 22.8 201L0 201Z" fill="#364351"></path><path d="M0 158L22.8 161.5C45.7 165 91.3 172 137 172.5C182.7 173 228.3 167 274 165.7C319.7 164.3 365.3 167.7 411.2 169.3C457 171 503 171 548.8 167.5C594.7 164 640.3 157 686 157.3C731.7 157.7 777.3 165.3 823 166.3C868.7 167.3 914.3 161.7 937.2 158.8L960 156L960 201L937.2 201C914.3 201 868.7 201 823 201C777.3 201 731.7 201 686 201C640.3 201 594.7 201 548.8 201C503 201 457 201 411.2 201C365.3 201 319.7 201 274 201C228.3 201 182.7 201 137 201C91.3 201 45.7 201 22.8 201L0 201Z" fill="#001220"></path></svg>